Coordinates
version=1
nRows=27
nColumns=24
inDegrees=yes

Units are S.I. units (second, meters, Newtons, ...)
If the header above contains a line with 'inDegrees', this indicates whether rotational values are in degrees (yes) or radians (no).

endheader
time	pelvis_tilt	pelvis_list	pelvis_rotation	pelvis_tx	pelvis_ty	pelvis_tz	hip_flexion_r	hip_adduction_r	hip_rotation_r	knee_angle_r	ankle_angle_r	subtalar_angle_r	mtp_angle_r	hip_flexion_l	hip_adduction_l	hip_rotation_l	knee_angle_l	ankle_angle_l	subtalar_angle_l	mtp_angle_l	lumbar_extension	lumbar_bending	lumbar_rotation
0.5	15.182771245717458	0.8353054809265137	-2.8013901093630253	-0.47794558275725163	1.3717842301468062	0.6830963456696798	17.531755685552838	-13.834631133777645	-5.663114069606018	-14.925656368773874	-0.16679135110369636	-0.10667646145555819	-9.704706008282226	-16.78723698600244	7.299115188574952	-12.001537202287839	-5.044844398031293	15.371770067053536	0.5579060025232955	-2.676383585737118	-17.979692443183406	-6.235307632933111	-9.041648275711214
0.517	-2.1397303224510695	1.2641956589332461	6.305831005546749	-1.1029313547978699	-0.8442722140715915	-2.5914333393831535	18.49306835728539	-3.21247117685719	-12.430166110809537	-16.527914210402102	-2.162769897784869	-12.890118668565705	0.17661647450989276	-19.485583788055585	3.8315044327847927	3.1775558600877165	0.3604269455036173	11.572402089465593	-5.500068270873529	4.177461099127651	-21.20964514008564	1.5281038961026692	4.794915279369259
0.533	6.077870761905767	-5.224349899821554	-1.9612258546576562	4.465216268428634	3.4478063727425354	-6.66711913354201	21.12805575431987	-8.346159730218627	-6.338303956259393	-8.953922791458458	8.859456436713085	8.464431758371543	-7.938210145739969	-11.253304986084967	0.822928371023087	-5.920284100066395	-9.30908911754325	13.431662574220411	-7.3607123688204075	3.083820836728056	-18.29945950119317	7.8096341758781405	2.23038828468625
0.55	0.34673700479489344	-0.04561089567923382	7.972513728109327	0.5907065740645069	3.0674163837439283	1.8652767231069651	20.168098833747738	-9.249457038044568	-3.6828263499161205	8.898473559160799	-5.273907115943161	-3.7573181706427867	-5.742109986862474	-21.705942991755965	6.64132835581935	0.4882905448550603	-0.48666817385325994	14.1597707777784	6.7757104270382005	0.6209502309126915	-20.45174297498248	-5.323815875534602	-7.636205757078056
0.567	13.143470419307308	-1.7744296220181197	-7.295676055202514	3.174728188498459	4.341888066662905	-5.067545022346154	18.643270831212405	-11.8529240087527	-8.158864518012992	3.1144704685994897	8.91141886901494	1.9628859197859996	-2.7041082186852403	-19.289965452953673	3.068422216994159	-1.4162043082206166	6.213925066735866	3.3736172149628025	7.054098178880429	-1.6165252519883833	-27.043535847471475	5.335458100063377	1.2704152614459643
0.583	0.18746421228278054	0.386005339314893	0.1829109097184206	6.384294055530924	-0.8150916543544187	5.705166229641004	20.330493497475246	-0.16598826210784523	-5.625233234049369	1.5330375054175993	3.8689072782218967	-1.4297814095821302	2.6548204243665974	-16.2145049283015	6.838988704697415	6.3709534691861744	-7.000812991464563	8.927366559618877	1.1833837100967204	3.197039688863683	-17.306011750733273	-6.231002562314627	-7.896594919132016
0.6	1.1264751981544743	2.4221422237993546	3.5725913391443997	-3.7818354453759366	-3.8704467867264105	5.575985105194742	21.291587838291544	-11.195919331976086	-3.364731737811349	4.042290028546956	8.887415802568805	1.281981171076129	3.5474823237427984	-16.721161644199874	3.743175730200055	0.4939613173918258	-9.122849145145315	13.638867953962698	-5.306105404257915	1.4561123264244498	-19.23358677133246	-10.157441237626106	-7.040263270786446
0.617	8.626929754580734	-4.570540882440902	-3.8053562682160766	0.3678583739869433	-9.138415523213403	2.2762345577023875	24.012890586998903	-3.608702451938009	-17.77617768763075	4.450434355694506	0.5003366260994535	-0.27902962121573566	-4.064823681517626	-23.109430181554405	1.8885677656177173	12.124419562563249	0.46441988469743745	12.368753819118364	-9.00916507710688	6.229085690648829	-16.16340522212849	-7.500318140974413	-7.71827261902241
0.633	12.60058702015408	3.946994863802361	2.7447209694796673	2.926567369459457	-9.137459140887835	-0.5134455703401489	11.8088107624703	-3.8079360764287067	-11.613032484379767	-5.084112104007081	10.217945035377785	1.7409614081211895	0.7873754241491709	-24.632640931033684	2.645818227534643	9.746770410956852	-9.911815707143484	8.111633958001029	-3.078956767573417	-0.8696094860882189	-21.349137535535036	-11.469106211102599	-9.238321496158102
0.65	-0.9756474698279978	1.5980836950454318	5.48394497220273	-1.4347324300640358	3.8201325499167016	1.0217700527500853	26.840499361929893	-12.824685466452827	3.0735467112578982	-10.209398571215539	-5.688860878930436	-3.5153733684694393	4.644233202613322	-19.03778237917369	-0.10886987364375988	2.88392654673238	-15.8702262159102	-0.7852032339106714	-1.833189586354689	-12.756586303486992	0.8975548154541286	-4.40470375722355	-11.88012059926997
0.667	6.025973372976761	1.8589110465965906	-4.470052617362308	-2.4321529360916103	8.763413655468067	2.7055307768750816	6.140821628481454	0.8179433637795981	-10.976885145306401	-12.717416295254916	-8.153989070456516	-2.4054581872716767	0.6028966606605175	-20.16804525172661	-4.24772109100401	-1.8448976707393632	-3.360410157337526	12.376138085833146	13.66646954647752	-3.9315037669652213	-9.678277931299052	-10.318212259566321	-1.481620670497505
0.683	5.43615145884316	-1.791497160600267	11.431470226499234	-5.870776823892236	-1.3653675965604664	5.544320170768732	21.341700529808108	2.1285065632120936	-5.477203405693689	-18.391340674685054	1.5943982015276255	3.454519501506465	3.6903365547779843	-22.51201631126314	5.342597479376895	9.051537290077054	-13.58282775976193	6.461850400380284	3.0518730067256223	-2.066217825993213	-21.072360668895243	-2.3743417154234523	-0.8952472890072887
0.7	2.181584146963576	-1.4057362729441958	7.578883636907866	0.4754935172520947	-4.01103939311047	0.2666023410613017	26.326317926287665	1.5789388765463803	-16.988187724147465	-14.121663988374642	5.477605221077563	-7.3379012062801925	-0.9094936655159389	-18.26808172736895	-3.4871488966262016	-2.5954022722919623	-23.92555371835067	18.731538373249734	-2.58301854394316	-9.519616567684945	-21.103808851047894	-8.691863095388387	-5.0289136623623385
0.717	8.012883702811141	-3.6232079125797094	0.2539220626151213	-1.58092486803477	-1.119280779607179	0.8887598788620992	24.109248966418363	-9.979753524537362	-8.179000701649159	-11.876007082277974	3.018641056146664	0.9093838042762452	-5.078095119520205	-24.84752176015908	1.3333005341452615	7.087365915344323	-21.452259623849635	13.994636059253065	0.8929190271355498	-4.122787926259782	-13.662467380457553	-2.963691253608435	-6.609829844348102
0.733	-3.2006549442366286	-6.152472330946998	-3.5897044413341193	1.3253539032649946	-9.02616398438974	-4.969178409977754	26.446622196504524	-5.867808567011844	-12.263592446106545	-21.355113166664196	4.629741387085313	10.169133038907429	0.2708894650004972	-14.294588742162922	2.4314030643675455	8.633629289352932	-23.796627492394933	11.941448039404605	1.1824673175664402	-0.6665116463754072	-18.18559710553821	-4.052800781304724	-9.086622955726433
0.75	1.312993478153233	4.145863369757585	2.7782714207128616	2.67906776689453	4.4781482319548225	8.061727244482555	10.70076752582769	0.6007788373849756	-4.465767833370972	-25.508422780887955	6.116382172321401	1.9014023243396503	-5.908949973160189	-17.465321402468103	0.06875504867801618	9.115699179362304	-38.916582939141286	1.095427364361588	0.4666696550686438	8.56993104565792	-11.617342834812057	-0.7394665529347492	-9.562309173076866
0.767	6.732881247192845	0.3228921790684398	11.342485327732797	-2.4130642063150103	0.7016143665266835	-0.30239641294820735	14.847469441022966	-1.6578605670370603	-4.247592480853774	-18.178755057741082	0.17450038080248242	7.7114814150578574	2.0869393372963803	-8.735117292644464	-5.094444872381778	2.863118472796023	-45.141135844064756	3.205772195220014	-2.242492045222123	3.1153062263178084	-18.55398006549662	-6.491246038695121	-6.1596311903512895
0.783	3.2609083827568752	-5.509467926107367	2.813597365052859	-3.459521764906537	-2.2170790290872735	12.547746846852718	21.51670495249174	-3.1973823498888345	1.180686563818231	-26.614460968526807	4.856732173621276	5.922845843218338	2.088567490579043	-8.351401190800386	-0.40148438126131625	0.15592646034019375	-43.44188739153451	-6.126249980066734	-2.7432748173610193	3.046288872562568	-15.978639315161491	-6.872473828556372	-1.5126019183078077
0.8	3.7567147929326192	8.788835954281343	6.548422035091665	-2.2543782713017873	0.2924918997113466	3.7411222986655135	17.613850199943084	1.2880060164860383	-11.929066623536581	-27.89895814279681	4.144012831326024	1.7020757491136147	-3.2601559468009356	-7.663279671529064	-3.004734533128951	5.137529603513853	-59.91683375600964	-14.316586023141603	0.8122850053337729	4.175560709772571	-18.31484008554391	-1.5086259115996414	-4.9934718008117205
0.817	-8.288262540882577	-0.02910246331918631	3.804755105676488	-3.093525918082191	-7.477548605413817	4.878191667028774	20.691870045200293	-5.651134317836633	-11.578106315422163	-25.18884240342716	4.412893409623859	0.29831040882023224	3.751756732456359	5.890232102254782	-8.141781270528645	-6.992714522718823	-58.95189531679442	-9.262942289297568	-4.625778268711105	2.2864137459618807	-20.88262226452865	9.305159124715567	-6.744604906244691
0.833	5.082806271587557	-2.8435151885325327	0.006720820823437279	7.164188934744575	-8.568327597626482	4.351684316640052	22.74673487985566	-2.2738317965870376	-6.670369842317875	-14.550476318924007	-0.696311650977882	3.5282720811538346	5.120634583427882	1.1619941921953243	-10.168644382619803	1.6920801402882857	-59.73535523589142	-6.678507115227346	-8.540217766103867	-5.560294986329136	-22.270455645501727	4.690438975078881	-4.246082292701735
0.85	-1.0482078190327826	-1.4513077402052703	-7.5403085180995175	5.120255853474997	4.379683024347749	2.0764819759786954	16.173661072687306	-1.9223881636145668	-9.820229560854532	-29.70582127585125	8.641748757202269	-7.554641571152509	0.47919140265778654	-3.144292821157646	-12.38966202433358	-17.52230522219955	-63.269031815801334	-10.498796641135122	5.875987149405036	3.261678358435302	-10.21087367531678	-5.267354951556977	-3.5819271745336536
0.867	5.6451363015216005	-6.651457194486804	3.3950414972003116	-7.840199274597683	5.985498740358253	-6.714350258471814	10.284786795299333	5.456659455554994	-5.8543180662198475	-19.676974330724867	7.365647622897429	-3.7240305404440237	2.475836274531627	1.5011354034576812	-9.647061639467129	-9.08141085444779	-70.06642679205675	-5.228072158788755	-0.09044155345378012	0.29001566383920674	-16.717907329945195	6.213187014640155	-7.3702446762776805
0.883	7.294192262756024	-0.28737602360761105	6.062234122595983	-2.9191642753168745	5.721738144515033	3.929314567141414	2.5964342905394586	4.82747779652486	-14.925731014274884	-20.96113275973225	5.7264213477030825	1.2009618730693268	-2.9743763980261884	4.409233708092662	-8.593585901909949	-6.927818864019185	-76.89988964657549	-4.929192209647197	-6.342552375444458	3.3083879480953287	-17.336998062885375	12.236371581070925	-4.59504318012907
0.9	13.361424523809214	-7.670120614030895	3.5922910847315244	4.7285646469274685	17.687719137619016	-5.3905736352532685	0.5106824548319127	4.832501610543757	-3.8264381561427623	-21.514048643699915	5.807181814139551	-3.650396089223183	-4.517688479975858	12.810307258386779	-3.513105680957204	-4.5658585477822875	-60.63601874309228	-0.9700269579498328	4.35826055075929	-1.184072316110634	-17.58435056207873	1.6765520325224437	-4.475911308371379
0.917	6.534231326765365	-0.5301475480965688	-0.09973522555964243	-1.6381006900639694	7.942606509184178	8.03833427398012	3.2691773770544654	2.1313166144814883	-6.43895577403934	-21.7135022134213	6.8297654585310905	4.150505369487267	-1.6335620838540241	10.106975697396958	0.12495931590162446	4.918945954700167	-72.47195715283611	3.929578374408494	-5.796675251641543	2.0192432942972625	-12.646493540624336	6.803899057195025	1.2900332011885278
0.933	-9.096760882826631	4.256537624230532	5.726485755009747	6.809212952429505	-7.933818267183995	-0.6081019452027647	-1.4050190102030156	-1.3508751396991658	0.2670949352992009	-13.754664158776976	8.80349940120801	-0.44300008067984015	-6.195728190772124	4.7684632149244575	-2.069672320437576	-7.294311068548014	-66.72388528075895	-9.144624067849504	1.6228773713382183	-3.7795218781387216	-17.740358737445	4.6371606604671864	-2.757134442047704
